<?xml version="1.0" encoding="UTF-8"?>
<!DOCTYPE svg PUBLIC "-//W3C//DTD SVG 1.1//EN" "http://www.w3.org/Graphics/SVG/1.1/DTD/svg11.dtd">
<svg version="1.2" width="279.4mm" height="215.9mm" viewBox="0 0 27940 21590" preserveAspectRatio="xMidYMid" fill-rule="evenodd" stroke-width="28.222" stroke-linejoin="round" xmlns="http://www.w3.org/2000/svg" xmlns:ooo="http://xml.openoffice.org/svg/export" xmlns:xlink="http://www.w3.org/1999/xlink" xmlns:presentation="http://sun.com/xmlns/staroffice/presentation" xmlns:smil="http://www.w3.org/2001/SMIL20/" xmlns:anim="urn:oasis:names:tc:opendocument:xmlns:animation:1.0" xml:space="preserve">
 <defs class="ClipPathGroup">
  <clipPath id="presentation_clip_path" clipPathUnits="userSpaceOnUse">
   <rect x="0" y="0" width="27940" height="21590"/>
  </clipPath>
  <clipPath id="presentation_clip_path_shrink" clipPathUnits="userSpaceOnUse">
   <rect x="27" y="21" width="27885" height="21547"/>
  </clipPath>
 </defs>
 <defs class="TextShapeIndex">
  <g ooo:slide="id1" ooo:id-list="id3 id4 id5 id6 id7 id8 id9 id10 id11 id12 id13 id14 id15 id16"/>
 </defs>
 <defs class="EmbeddedBulletChars">
  <g id="bullet-char-template-57356" transform="scale(0.00048828125,-0.00048828125)">
   <path d="M 580,1141 L 1163,571 580,0 -4,571 580,1141 Z"/>
  </g>
  <g id="bullet-char-template-57354" transform="scale(0.00048828125,-0.00048828125)">
   <path d="M 8,1128 L 1137,1128 1137,0 8,0 8,1128 Z"/>
  </g>
  <g id="bullet-char-template-10146" transform="scale(0.00048828125,-0.00048828125)">
   <path d="M 174,0 L 602,739 174,1481 1456,739 174,0 Z M 1358,739 L 309,1346 659,739 1358,739 Z"/>
  </g>
  <g id="bullet-char-template-10132" transform="scale(0.00048828125,-0.00048828125)">
   <path d="M 2015,739 L 1276,0 717,0 1260,543 174,543 174,936 1260,936 717,1481 1274,1481 2015,739 Z"/>
  </g>
  <g id="bullet-char-template-10007" transform="scale(0.00048828125,-0.00048828125)">
   <path d="M 0,-2 C -7,14 -16,27 -25,37 L 356,567 C 262,823 215,952 215,954 215,979 228,992 255,992 264,992 276,990 289,987 310,991 331,999 354,1012 L 381,999 492,748 772,1049 836,1024 860,1049 C 881,1039 901,1025 922,1006 886,937 835,863 770,784 769,783 710,716 594,584 L 774,223 C 774,196 753,168 711,139 L 727,119 C 717,90 699,76 672,76 641,76 570,178 457,381 L 164,-76 C 142,-110 111,-127 72,-127 30,-127 9,-110 8,-76 1,-67 -2,-52 -2,-32 -2,-23 -1,-13 0,-2 Z"/>
  </g>
  <g id="bullet-char-template-10004" transform="scale(0.00048828125,-0.00048828125)">
   <path d="M 285,-33 C 182,-33 111,30 74,156 52,228 41,333 41,471 41,549 55,616 82,672 116,743 169,778 240,778 293,778 328,747 346,684 L 369,508 C 377,444 397,411 428,410 L 1163,1116 C 1174,1127 1196,1133 1229,1133 1271,1133 1292,1118 1292,1087 L 1292,965 C 1292,929 1282,901 1262,881 L 442,47 C 390,-6 338,-33 285,-33 Z"/>
  </g>
  <g id="bullet-char-template-9679" transform="scale(0.00048828125,-0.00048828125)">
   <path d="M 813,0 C 632,0 489,54 383,161 276,268 223,411 223,592 223,773 276,916 383,1023 489,1130 632,1184 813,1184 992,1184 1136,1130 1245,1023 1353,916 1407,772 1407,592 1407,412 1353,268 1245,161 1136,54 992,0 813,0 Z"/>
  </g>
  <g id="bullet-char-template-8226" transform="scale(0.00048828125,-0.00048828125)">
   <path d="M 346,457 C 273,457 209,483 155,535 101,586 74,649 74,723 74,796 101,859 155,911 209,963 273,989 346,989 419,989 480,963 531,910 582,859 608,796 608,723 608,648 583,586 532,535 482,483 420,457 346,457 Z"/>
  </g>
  <g id="bullet-char-template-8211" transform="scale(0.00048828125,-0.00048828125)">
   <path d="M -4,459 L 1135,459 1135,606 -4,606 -4,459 Z"/>
  </g>
  <g id="bullet-char-template-61548" transform="scale(0.00048828125,-0.00048828125)">
   <path d="M 173,740 C 173,903 231,1043 346,1159 462,1274 601,1332 765,1332 928,1332 1067,1274 1183,1159 1299,1043 1357,903 1357,740 1357,577 1299,437 1183,322 1067,206 928,148 765,148 601,148 462,206 346,322 231,437 173,577 173,740 Z"/>
  </g>
 </defs>
 <defs class="TextEmbeddedBitmaps"/>
 <g>
  <g id="id2" class="Master_Slide">
   <g id="bg-id2" class="Background"/>
   <g id="bo-id2" class="BackgroundObjects"/>
  </g>
 </g>
 <g class="SlideGroup">
  <g>
   <g id="container-id1">
    <g id="id1" class="Slide" clip-path="url(#presentation_clip_path)">
     <g class="Page">
      <g class="com.sun.star.drawing.PolyPolygonShape">
       <g id="id3">
        <rect class="BoundingBox" stroke="none" fill="none" x="0" y="15054" width="27941" height="6533"/>
        <path fill="rgb(27,25,24)" stroke="none" d="M 0,15055 L 27940,15055 27940,21585 0,21585 0,15055 Z"/>
       </g>
      </g>
      <g class="com.sun.star.drawing.ClosedBezierShape">
       <g id="id4">
        <rect class="BoundingBox" stroke="none" fill="none" x="16620" y="3911" width="11291" height="10675"/>
        <path fill="rgb(27,25,24)" stroke="none" d="M 22268,3911 C 25385,3911 27910,6299 27910,9251 27910,12198 25385,14585 22268,14585 19145,14585 16620,12198 16620,9251 16620,6299 19145,3911 22268,3911 Z"/>
       </g>
      </g>
      <g class="com.sun.star.drawing.ClosedBezierShape">
       <g id="id5">
        <rect class="BoundingBox" stroke="none" fill="none" x="16530" y="200" width="6586" height="14418"/>
        <path fill="rgb(134,135,137)" stroke="none" d="M 19646,200 C 19631,4291 16830,5193 16549,8662 16287,12032 18812,14827 23114,14604 18411,11866 21488,9597 22547,7233 23461,5188 23270,2734 19646,200 Z"/>
       </g>
      </g>
      <g class="com.sun.star.drawing.ClosedBezierShape">
       <g id="id6">
        <rect class="BoundingBox" stroke="none" fill="none" x="16173" y="1006" width="2879" height="9494"/>
        <path fill="rgb(155,157,159)" stroke="none" d="M 16661,10499 C 15677,6768 18548,4661 19050,2222 18167,1681 17132,1254 16174,1007 17825,4946 15185,7181 16661,10499 Z"/>
       </g>
      </g>
      <g class="com.sun.star.drawing.ClosedBezierShape">
       <g id="id7">
        <rect class="BoundingBox" stroke="none" fill="none" x="18879" y="480" width="4132" height="14035"/>
        <path fill="rgb(27,25,24)" stroke="none" d="M 22958,14514 C 19384,13460 18536,11358 18993,9502 19655,6854 22712,4547 20032,480 23279,2915 23430,5264 22547,7233 21497,9569 18481,11818 22958,14514 Z"/>
       </g>
      </g>
      <g class="com.sun.star.drawing.ClosedBezierShape">
       <g id="id8">
        <rect class="BoundingBox" stroke="none" fill="none" x="16530" y="200" width="6586" height="14418"/>
        <path fill="rgb(27,25,24)" stroke="none" d="M 19671,214 C 20534,3171 17638,5473 17066,8520 16518,11462 18049,14125 22924,14490 22984,14528 23049,14566 23114,14604 18812,14827 16287,12032 16549,8662 16830,5193 19631,4291 19646,200 L 19671,214 Z"/>
       </g>
      </g>
      <g class="com.sun.star.drawing.ClosedBezierShape">
       <g id="id9">
        <rect class="BoundingBox" stroke="none" fill="none" x="16198" y="1016" width="2848" height="2351"/>
        <path fill="rgb(27,25,24)" stroke="none" d="M 16199,1016 C 17243,1685 18071,2459 18658,3366 18829,2991 18970,2611 19045,2231 18172,1695 17148,1263 16199,1016 Z"/>
       </g>
      </g>
      <g class="com.sun.star.drawing.ClosedBezierShape">
       <g id="id10">
        <rect class="BoundingBox" stroke="none" fill="none" x="0" y="3716" width="14157" height="10875"/>
        <path fill="rgb(27,25,24)" stroke="none" d="M 2901,8059 L 3529,8059 C 4307,8059 4839,7979 5125,7817 5411,7656 5557,7381 5557,6982 5557,6569 5421,6284 5150,6118 4884,5952 4357,5867 3579,5867 L 2901,5867 2901,8059 Z M 2901,8059 L 2901,8059 Z M 0,14590 L 0,3717 3147,3717 C 4442,3717 5351,3755 5868,3835 6385,3911 6827,4049 7203,4244 7630,4467 7951,4766 8172,5136 8398,5511 8508,5943 8508,6431 8508,7053 8343,7542 8012,7907 7675,8273 7148,8543 6415,8733 7233,8795 7871,9065 8333,9550 8795,10034 9026,10679 9026,11486 9026,12065 8895,12573 8639,13014 8378,13455 8007,13797 7525,14039 7133,14239 6641,14381 6069,14462 5492,14547 4548,14590 3243,14590 L 0,14590 Z M 0,14590 L 0,14590 Z M 2901,12369 L 4001,12369 C 4744,12369 5271,12278 5582,12108 5888,11932 6044,11638 6044,11225 6044,10774 5903,10451 5622,10271 5336,10095 4814,10000 4051,10000 L 2901,10000 2901,12369 Z M 2901,12369 L 2901,12369 Z M 10988,14590 L 10988,3717 14156,3717 14156,14590 10988,14590 Z"/>
       </g>
      </g>
      <g class="com.sun.star.drawing.PolyPolygonShape">
       <g id="id11">
        <rect class="BoundingBox" stroke="none" fill="none" x="22187" y="15054" width="3139" height="6514"/>
        <path fill="rgb(255,255,255)" stroke="none" d="M 22187,15055 L 25325,15055 25325,21566 22187,21566 22187,15055 Z"/>
       </g>
      </g>
      <g class="com.sun.star.drawing.PolyPolygonShape">
       <g id="id12">
        <rect class="BoundingBox" stroke="none" fill="none" x="18658" y="16825" width="9233" height="2968"/>
        <path fill="rgb(255,255,255)" stroke="none" d="M 27890,16825 L 27890,19791 19848,19791 18658,18168 19642,16825 27890,16825 Z"/>
       </g>
      </g>
      <g class="com.sun.star.drawing.PolyPolygonShape">
       <g id="id13">
        <rect class="BoundingBox" stroke="none" fill="none" x="11013" y="15045" width="3129" height="6546"/>
        <path fill="rgb(227,0,121)" stroke="none" d="M 14141,15045 L 11013,15045 11013,21590 14141,21590 14141,15045 Z"/>
       </g>
      </g>
      <g class="com.sun.star.drawing.ClosedBezierShape">
       <g id="id14">
        <rect class="BoundingBox" stroke="none" fill="none" x="14241" y="15842" width="5835" height="5674"/>
        <path fill="rgb(255,255,255)" stroke="none" d="M 16696,16963 L 16706,16977 C 16786,17119 16841,17247 16871,17361 16897,17257 16947,17138 17027,17001 17037,16982 17042,16972 17047,16963 L 17660,15843 19321,15843 17604,18163 20074,21514 18412,21514 17047,19246 C 17007,19179 16972,19117 16942,19051 16912,18980 16886,18913 16871,18847 16846,18923 16826,18994 16796,19060 16766,19127 16736,19189 16696,19246 L 15827,20679 14241,20679 16139,18140 14422,15843 16083,15843 16696,16963 Z"/>
       </g>
      </g>
      <g class="com.sun.star.drawing.ClosedBezierShape">
       <g id="id15">
        <rect class="BoundingBox" stroke="none" fill="none" x="1651" y="15842" width="4018" height="4838"/>
        <path fill="rgb(255,255,255)" stroke="none" d="M 2942,17770 L 3218,17770 C 3564,17770 3805,17736 3935,17665 4061,17594 4126,17471 4126,17295 4126,17110 4066,16982 3946,16910 3825,16835 3589,16797 3243,16797 L 2942,16797 2942,17770 Z M 2942,17770 L 2942,17770 Z M 1652,20679 L 1652,15843 3047,15843 C 3624,15843 4036,15857 4262,15895 4493,15928 4688,15990 4854,16075 5045,16175 5185,16308 5286,16474 5386,16640 5436,16830 5436,17048 5436,17323 5361,17542 5216,17703 5065,17864 4829,17988 4508,18073 4869,18097 5155,18220 5356,18439 5562,18652 5667,18937 5667,19298 5667,19554 5607,19782 5492,19976 5376,20176 5211,20328 5000,20432 4824,20522 4608,20584 4352,20622 4096,20660 3679,20679 3092,20679 L 1652,20679 Z M 1652,20679 L 1652,20679 Z M 2942,19692 L 3428,19692 C 3765,19692 4001,19654 4136,19573 4272,19497 4342,19364 4342,19184 4342,18980 4282,18837 4156,18761 4026,18681 3795,18638 3454,18638 L 2942,18638 2942,19692 Z"/>
       </g>
      </g>
      <g class="com.sun.star.drawing.ClosedBezierShape">
       <g id="id16">
        <rect class="BoundingBox" stroke="none" fill="none" x="6500" y="15842" width="4058" height="4838"/>
        <path fill="rgb(255,255,255)" stroke="none" d="M 6501,20679 L 6501,15843 7956,15843 C 8524,15843 8925,15866 9151,15914 9377,15966 9568,16047 9733,16165 9919,16294 10060,16464 10155,16668 10255,16873 10306,17100 10306,17347 10306,17722 10210,18026 10014,18263 9819,18496 9538,18652 9166,18728 L 10557,20679 8980,20679 7806,18785 7806,20679 6501,20679 Z M 6501,20679 L 6501,20679 Z M 7806,18125 L 8062,18125 C 8363,18125 8589,18078 8724,17978 8865,17883 8935,17732 8935,17523 8935,17281 8870,17110 8739,17005 8609,16906 8388,16854 8082,16854 L 7806,16854 7806,18125 Z"/>
       </g>
      </g>
     </g>
    </g>
   </g>
  </g>
 </g>
</svg>